/* XPM */
static const char * camera_xpm[] = {
/* columns rows colors chars-per-pixel */
"16 15 6 1",
"  c black",
". c #002E70",
"X c #CDCDCD",
"o c #C4E9F5",
"O c gray100",
"+ c None",
/* pixels */
"++++++++++++++++",
"+++   +   ++++++",
"++ ooo ooo +++++",
"++ ooo ooo +++++",
"++ ooo ooo +++++",
"+++   +   ++  ++",
"++++      +   ++",
"++++ ....     ++",
"++++ ....     ++",
"++++ ....     ++",
"+++++    ++   ++",
"++++ .++. ++  ++",
"++++ .++. ++++++",
"+++ .++++. +++++",
"+++ .++++. +++++"
};
