/* XPM */
static const char *fullscreen_xpm[] = {
/* columns rows colors chars-per-pixel */
"16 15 5 1",
"  c gray30",
". c #4DFFFF",
"X c gray65",
"o c gray100",
"O c None",
/* pixels */
"OOOOOOOOOOOOOOOO",
"OO             O",
"O OOOOOOOOOOOOO ",
"O O           O ",
"O O .o.o.o.o. O ",
"O O oXXXo.o.o O ",
"O O .o.o.o.o. O ",
"O O oXXXXXXXo O ",
"O O .o.o.o.o. O ",
"O O oXXXXXXXo O ",
"O O .o.o.o.o. O ",
"O O           O ",
"O OOOOOOOOOOOOO ",
"OO             O",
"OOOOOOOOOOOOOOOO"
};
