/* XPM */
static char * lockrot_xpm [] = {
/* columns rows colors chars-per-pixel */
"16 15 5 1",
"  c #0060A2",
". c #00A5E4",
"X c #DE0000",
"o c gray100",
"O c None",
/* pixels */
"OOOOOOOOOOOOOOOO",
"OOOOOOOOOOOOOOOO",
"OOOOO......OOOOO",
"OOOO.......OOOOO",
"OOO .......OOOOO",
"OOO ..OOOOOOOOOO",
"OXX  OOXXOOOOOOO",
"OXXX OXXXO  OOOO",
"OOXXXXXXOO   OOO",
"OOOXXXX       OO",
"OOOXXXX        O",
"OOXXXXXX      OO",
"OXXXOOXXXO   OOO",
"OXXOOOOXXO  OOOO",
"OOOOOOOOOOOOOOOO"
};
