/* XPM */
static char * rotation_xpm[] = {
/* columns rows colors chars-per-pixel */
"16 15 4 1",
"  c #0060A2",
". c #00A5E4",
"X c gray100",
"o c None",
/* pixels */
"oooooooooooooooo",
"oooooooooooooooo",
"ooooo......ooooo",
"oooo.......ooooo",
"ooo .......ooooo",
"ooo ..oooooooooo",
"ooo  ooooooooooo",
"ooo  ooooo  oooo",
"ooo   oooo   ooo",
"ooo           oo",
"oooo           o",
"ooooo         oo",
"oooooooooo   ooo",
"oooooooooo  oooo",
"oooooooooooooooo"
};
