/* XPM */
static char * stereo_xpm [] = {
/* columns rows colors chars-per-pixel */
"16 15 5 1",
"  c black",
". c cyan",
"X c red",
"o c gray100",
"O c None",
/* pixels */
"OOOOOOOOOOOOOOOO",
"OOOOOOOOOOOOOOOO",
"OOOOOOOOOOOOOOOO",
"OOOOOOOOOOOOOOOO",
"                ",
" oooooooooooooo ",
" o.....ooXXXXXo ",
" o.....ooXXXXXo ",
" o.....ooXXXXXo ",
" o....ooooXXXXo ",
" oooooo  oooooo ",
"       OO       ",
"OOOOOOOOOOOOOOOO",
"OOOOOOOOOOOOOOOO",
"OOOOOOOOOOOOOOOO"
};
