/* XPM */
static char *visbbox_xpm[] = {
/* columns rows colors chars-per-pixel */
"16 15 3 1",
"  c #E81B1B",
". c gray100",
"X c None",
/* pixels */
"XXXXXXXXXXXXXXXX",
"XXX            X",
"XX XXXXXXXXXX  X",
"X XXXXXXXXXX X X",
"            XX X",
" XXXXXXXXXX XX X",
" XXXXXXXXXX XX X",
" XXXXXXXXXX XX X",
" XXXXXXXXXX XX X",
" XXXXXXXXXX XX X",
" XXXXXXXXXX XX X",
" XXXXXXXXXX XX X",
" XXXXXXXXXX X XX",
" XXXXXXXXXX  XXX",
"            XXXX"
};
