/* XPM */
static char * visentrance_xpm[] = {
"16 15 2 1",
" 	c None",
".	c #1A4C1A",
"                ",
"     ......     ",
"    ..    ..    ",
"   ..      ..   ",
"  ..        ..  ",
"  ..        ..  ",
"  ..        ..  ",
"  ..        ..  ",
"  ..        ..  ",
"   ..      ..   ",
"    ..    ..    ",
"    ..    ..    ",
"  ...      ...  ",
"                ",
"                "};
