/* XPM */
static char * visfix_xpm[] = {
"16 15 2 1",
" 	c None",
".	c #500000",
"                ",
"                ",
"        .       ",
"        .       ",
"       ...      ",
"      .   .     ",
"     .     .    ",
"   ...  .  ...  ",
"     .     .    ",
"      .   .     ",
"       ...      ",
"        .       ",
"        .       ",
"                ",
"                "};
