/* XPM */
static const char *visinds_xpm[] = {
/* columns rows colors chars-per-pixel */
"16 15 12 1",
"  c #0009C4",
". c #1D00FF",
"X c #00FF02",
"o c #00CCFF",
"O c #00F5FE",
"+ c #FF3100",
"@ c #FD00FD",
"# c #FFBA00",
"$ c #F3FF00",
"% c #FFEA3A",
"& c gray100",
"* c None",
/* pixels */
"****************",
"**+ *ooo********",
"**# ************",
"**$ *ooo********",
"**X ************",
"**O *ooo********",
"**. ************",
"**@ *ooo********",
"****************",
"**   *   *******",
"** % * % **o****",
"**   *   *   ***",
"***o***o********",
"**ooooooooooo***",
"****************"
};
