/* XPM */
static const char * vislabel_xpm[] = {
"16 15 3 1",
" 	c None",
".	c #000000",
"+	c #9E7B00",
"                ",
"    .  ..   .   ",
"   . . . . . .  ",
"   ... ..  .    ",
"   . . . . . .  ",
"   . . ..   .   ",
"                ",
"                ",
"        +       ",
"        +       ",
"      +++++     ",
"        +       ",
"        +       ",
"                ",
"                "};
