/* XPM */
static char *viswalls_xpm[] = {
/* columns rows colors chars-per-pixel */
"16 15 39 1",
"  c black",
". c gray43",
"X c #717171",
"o c #777777",
"O c gray48",
"+ c #7E7E7E",
"@ c #838383",
"# c #848484",
"$ c gray53",
"% c gray55",
"& c gray56",
"* c #909090",
"= c gray57",
"- c #939393",
"; c #959595",
": c gray59",
"> c #989898",
", c #9A9A9A",
"< c #9B9B9B",
"1 c gray61",
"2 c #9D9D9D",
"3 c gray62",
"4 c #A0A0A0",
"5 c gray63",
"6 c #A2A2A2",
"7 c gray64",
"8 c #A4A4A4",
"9 c #A5A5A5",
"0 c #A7A7A7",
"q c gray66",
"w c #A9A9A9",
"e c #AAAAAA",
"r c gray67",
"t c #B7B7B7",
"y c #B9B9B9",
"u c gray73",
"i c #BBBBBB",
"p c gray100",
"a c None",
/* pixels */
"aaaaaaaaaaaaaaaa",
"aaaaaaaaaaaa  aa",
"aaaaaaaaaa  6r a",
"aaaaaaaa  <ww1 a",
"aaaaaaa &6w0<. a",
"aaaaa  <0w0:X aa",
"aaa  :10w6&o aaa",
"a  %:10w1&O aaaa",
" u6 1wr1%+ aaaaa",
" uu ww1&# aaaaaa",
" uuu 1&# aaaaaaa",
" uui &# aaaaaaaa",
"a uu & aaaaaaaaa",
"a uu  aaaaaaaaaa",
"aa   aaaaaaaaaaa"
};
